<svg width="166px" height="31px" viewBox="0 0 166 31" version="1.1" xmlns="http://www.w3.org/2000/svg" xmlns:xlink="http://www.w3.org/1999/xlink">
    <defs>
        <polygon id="path-1" points="0.0765765862 0.0795731903 21.2135836 0.0795731903 21.2135836 21.4744365 0.0765765862 21.4744365"></polygon>
        <polygon id="path-3" points="0 56.8116086 166 56.8116086 166 0.148346738 0 0.148346738"></polygon>
    </defs>
    <g id="Symbols" stroke="none" stroke-width="1" fill="none" fill-rule="evenodd">
        <g id="HEADER-/-NAV_blue" transform="translate(-150.000000, -49.000000)">
            <g id="HEADER-/-NAV">
                <g id="all/header/logo" transform="translate(150.000000, 40.000000)">
                    <polygon id="Fill-4" fill="#000000" points="17.2697855 17.8176894 17.2697855 22.3283203 9.62310456 22.3283203 9.62310456 31.0067528 9.66597676 31.7366188 9.83776229 32.3807403 10.0955889 32.9389691 10.4823289 33.4558091 10.9116443 33.8425491 11.4701698 34.1428029 12.1147364 34.3142917 12.844899 34.3571639 13.8760572 34.3142917 14.9072154 34.0999307 16.0242663 33.7130424 17.2697855 33.1549619 17.2697855 37.9237162 15.6375264 38.5249655 14.1337355 38.9538359 12.6734102 39.1696804 11.1696193 39.2546831 9.57978731 39.1262148 8.80660411 38.9967081 8.03356926 38.8258127 7.34583378 38.6099682 6.65854334 38.309121 6.01442181 37.9237162 5.45574799 37.4933623 4.89751921 37.0214713 4.42488651 36.4188869 4.03829491 35.7747653 3.65140661 35.0879199 3.39343164 34.2714195 3.17892225 33.369323 3.05000894 32.4243542 3.00698838 31.3498788 3.00698838 22.3283203 0 22.3283203 0 21.0828011 7.9473798 12.1465419 9.62310456 12.1465419 9.62310456 17.8176894"></polygon>
                    <polygon id="Fill-6" fill="#000000" points="25.2176252 9.56923986 25.2176252 20.910793 25.3033696 20.910793 26.0339773 20.0515687 26.8071605 19.3641299 27.5806404 18.7627323 28.3965475 18.2472273 29.2130479 17.903508 30.1151444 17.6028091 31.0172409 17.4740441 31.9626547 17.4308752 32.9076234 17.4740441 33.8956127 17.6028091 34.7977092 17.8606357 35.7002508 18.2472273 36.5163062 18.7198601 37.289341 19.320961 37.9770765 20.0515687 38.5353053 20.910793 37.9770765 21.6839762 37.4612749 22.5003283 37.0321078 23.4024248 36.6452195 24.3907108 36.3875412 25.3779584 36.1728835 26.4524338 36.0438218 27.5690397 35.957484 28.7298529 36.0438218 30.3198332 36.3015001 31.8231791 36.7311122 33.2398904 37.289341 34.5717475 37.9770765 35.8175634 38.8364492 36.9350593 39.8242901 37.9237903 40.8983205 38.8258869 33.0363884 38.8258869 33.0363884 26.8399155 32.9933678 25.76544 32.8215823 24.8204713 32.5208835 24.0041192 32.1345886 23.3595526 31.618787 22.8870683 31.0601131 22.5432005 30.3728227 22.3283945 29.6425117 22.24265 29.0838379 22.2855223 28.5256091 22.4145839 27.967232 22.6721139 27.4087065 23.0158332 26.8932016 23.4452971 26.3345278 24.0041192 25.776299 24.6483891 25.2176252 25.4215723 25.2176252 38.8258869 18.601509 38.8258869 18.601509 9.56923986"></polygon>
                    <polygon id="Fill-8" fill="#000000" points="66.9323274 17.9466175 66.9323274 20.6527587 67.7915517 19.8795755 68.6936483 19.2353056 69.5530209 18.7198007 70.4555625 18.247168 71.3572139 17.9466175 72.302331 17.6886425 73.2475964 17.5600259 74.2358824 17.5167087 75.5674427 17.6028981 76.7705348 17.774832 77.8447135 18.1614236 78.8325544 18.6340563 79.7347993 19.2353056 80.5078341 20.0081921 81.1954213 20.9107337 81.7966706 21.9846157 82.8278288 20.9107337 83.8159664 19.965765 84.8038073 19.1922851 85.79239 18.5907391 86.8232515 18.1181063 87.8547063 17.774832 88.92844 17.6028981 90.0879181 17.5167087 90.9909047 17.5600259 91.8065151 17.6457703 92.6228672 17.8605764 93.3963471 18.0752341 94.1268064 18.3760813 94.770928 18.7626729 95.4157912 19.1922851 95.9734266 19.7076416 96.4895249 20.2235916 96.9620093 20.8245442 97.3480075 21.4691108 97.6918752 22.1997185 97.9499986 22.9300295 98.1222291 23.7459366 98.2508458 24.562437 98.2929762 25.4645335 98.2929762 38.9537024 91.6778985 38.9537024 91.6778985 26.6240116 91.5920057 25.5510197 91.4196268 24.6484781 91.0759074 23.832126 90.6468887 23.1875594 90.0879181 22.6288856 89.4437966 22.2425907 88.6704651 22.0277846 87.8110924 21.9417435 87.0804847 21.9846157 86.3936393 22.1564013 85.7059038 22.4573968 85.0617823 22.8441367 84.416919 23.3594933 83.7729458 23.9607426 83.1713998 24.6913503 82.6130227 25.5074057 82.6130227 38.9537024 75.9970549 38.9537024 75.9970549 26.4959884 75.9108654 25.3365103 75.6536322 24.3477793 75.2668922 23.5744477 74.7510906 22.9300295 74.1498413 22.500269 73.4622542 22.1564013 72.7323882 21.9846157 72.0017805 21.9417435 71.3572139 21.9846157 70.7127957 22.113529 70.0685258 22.3716524 69.4239592 22.6722029 68.7798377 23.1015183 68.1782917 23.6173199 67.5340218 24.1758454 66.9323274 24.8632842 66.9323274 38.9537024 58.6838038 38.9537024 59.7581308 38.138092 60.7030996 37.2358472 61.5624722 36.1615201 62.2929315 35.0021903 62.8940325 33.6695916 63.3666652 32.2097113 63.4957269 31.3927659 63.6243435 30.5771555 63.7103846 28.8149446 63.7103846 27.7848248 63.6243435 26.8398561 63.4524097 25.8947391 63.2809208 25.0352181 63.0230942 24.2187176 62.7220987 23.4452377 62.3788243 22.7152234 61.991936 22.0277846 61.5624722 21.3404942 61.0898395 20.7387998 60.0586813 19.6647694 58.9417787 18.7198007 57.6959628 17.9466175"></polygon>
                    <path d="M120.031915,38.2675246 L118.914567,38.6529294 L117.797813,38.9966488 L116.724228,39.1696211 L115.778517,39.2546238 L115.005631,39.2124933 L114.360916,39.1261555 L113.759815,38.9537766 L113.28644,38.6965433 L112.856828,38.3525273 L112.512961,37.9666774 L112.255579,37.4504307 L112.040476,36.892202 L111.139121,37.4933029 L110.237025,37.9666774 L109.377652,38.3953995 L108.518428,38.6965433 L107.659204,38.9537766 L106.842851,39.1261555 L105.983627,39.2124933 L105.124255,39.2546238 L104.523005,39.2124933 L103.921756,39.1261555 L102.804557,38.7822878 L101.816716,38.3090617 L100.957343,37.6649401 L100.226735,36.892202 L99.7113787,35.9899571 L99.4968693,35.560345 L99.3682527,35.0878606 L99.2817666,34.5717623 L99.2388944,34.0998713 L99.3246388,33.1977748 L99.4532554,32.380681 L99.6683582,31.6514084 L99.9695021,31.0068418 L100.398372,30.4048508 L100.914471,29.8464736 L101.51572,29.3311171 L102.203307,28.857891 L103.019659,28.4290206 L103.921756,27.9992601 L106.112095,27.1400357 L108.690658,26.2815532 L111.740222,25.3365845 L111.740222,24.6484039 L111.654478,23.9608168 L111.439227,23.3595675 L111.053377,22.8440626 L110.580744,22.4145987 L109.893009,22.1134549 L109.119529,21.8990938 L108.088074,21.8559249 L107.100826,21.8990938 L106.069223,22.0705827 L105.03851,22.3717265 L104.050669,22.8008937 L103.019659,23.3166953 L102.074691,23.8752207 L101.171704,24.5623628 L100.355352,25.3365845 L100.355352,19.9658391 L101.386955,19.3641448 L102.460837,18.8484915 L103.578036,18.4191761 L104.694642,18.0753083 L105.854862,17.7747578 L107.01434,17.5599517 L108.217432,17.474059 L109.463545,17.4308901 L111.353482,17.5166345 L113.071931,17.7747578 L113.888431,17.9466917 L114.619039,18.2040733 L115.263161,18.5049205 L115.907876,18.8918088 L116.465511,19.2784004 L116.937995,19.7510331 L117.368349,20.2663896 L117.712069,20.8679357 L117.969599,21.5125022 L118.184701,22.1997927 L118.313318,22.9728275 L118.35619,23.7891796 L118.35619,33.3692636 L118.442083,34.0133852 L118.656592,34.4867596 L118.828823,34.6153762 L119.000312,34.7447346 L119.430666,34.8297373 L119.730919,34.7876068 L120.031915,34.7447346 L120.031915,38.2675246 Z M111.740222,33.7560036 L111.740222,28.6869955 L109.205422,29.6749848 L108.217432,30.1468758 L107.401822,30.6199535 L106.757107,31.1354584 L106.327347,31.6936872 L106.069223,32.3376604 L105.940755,33.111882 L106.027093,33.5416425 L106.112095,33.970513 L106.327347,34.3572529 L106.585322,34.6582484 L106.928596,34.9590956 L107.272315,35.1301394 L107.659204,35.30237 L108.088074,35.3459839 L109.033784,35.2166256 L109.979495,34.9154817 L110.880998,34.4010152 L111.740222,33.7560036 Z" id="Fill-10" fill="#000000"></path>
                    <polygon id="Fill-12" fill="#000000" points="127.893135 17.8176894 121.277761 17.8176894 121.277761 38.8258127 127.893135 38.8258127 127.893135 25.2933265 128.537998 24.390785 129.096227 23.6601773 129.69807 23.058928 130.212981 22.5864436 130.771803 22.2425759 131.330181 22.0277698 131.889151 21.8991532 132.4904 21.8559843 133.177987 21.8991532 133.822257 22.070642 134.337466 22.3716375 134.852971 22.800953 135.23971 23.4023507 135.540706 24.1326617 135.712937 24.991886 135.755215 26.0228958 135.755215 38.8258127 142.371183 38.8258127 142.371183 25.5073909 142.328311 24.390785 142.199546 23.3594785 141.984295 22.4573819 141.640576 21.5980093 141.253836 20.867995 140.824965 20.2235768 140.351591 19.6218824 139.794104 19.1065258 139.192261 18.6769137 138.59027 18.3330459 137.946297 18.0320504 137.301433 17.8176894 136.658054 17.6457555 136.01319 17.5166938 134.724354 17.4309494 133.736365 17.4741183 132.834268 17.6028833 131.93143 17.8605616 131.072947 18.2039843 130.256447 18.6769137 129.482967 19.2784597 128.666615 20.0083256 127.893135 20.8246777"></polygon>
                    <g id="Group-16" transform="translate(144.786416, 17.351376)">
                        <mask id="mask-2" fill="white">
                            <use xlink:href="#path-1"></use>
                        </mask>
                        <g id="Clip-15"></g>
                        <polygon id="Fill-14" fill="#000000" mask="url(#mask-2)" points="6.69269276 0.466313137 0.0765765862 0.466313137 0.0765765862 21.4744365 6.69269276 21.4744365 6.69269276 7.94195031 7.3368143 7.03940876 7.93865702 6.30880107 8.4962924 5.70755174 9.05541126 5.23506738 9.61364004 4.89119964 10.1726105 4.67639357 10.7309877 4.54777694 11.3320887 4.50460804 12.0198241 4.54777694 12.6210735 4.71926577 13.1798956 5.0202613 13.6525283 5.44957676 14.0815471 6.05097444 14.3823943 6.78128543 14.5540315 7.64050974 14.5974971 8.67151957 14.5974971 21.4744365 21.2136132 21.4744365 21.2136132 8.15601466 21.1699993 7.03940876 20.9985105 6.00810223 20.7838527 5.10600572 20.4822638 4.24663307 20.0962656 3.51661877 19.6659117 2.87220054 19.1511485 2.27050617 18.592178 1.7551496 18.0339492 1.32553744 17.4326999 0.981669705 16.7887267 0.680674173 16.1438634 0.466313137 15.456128 0.294379267 14.8120064 0.165317605 13.52317 0.0795731903 12.5782013 0.122742091 11.6324908 0.25150706 10.7738599 0.509185344 9.91463557 0.852608043 9.09887685 1.32553744 8.28252475 1.92708347 7.50919321 2.65694942 6.69269276 3.47330152"></polygon>
                    </g>
                    <polygon id="Fill-17" fill="#01A9D6" points="44.2920636 28.7727548 44.3350842 29.3311319 44.4211253 29.8893607 44.7216758 30.9209639 45.2374774 31.866081 45.9244711 32.6816913 46.7408232 33.3692785 47.2137526 33.6268084 47.686237 33.8840416 48.2015936 34.0570139 48.7170985 34.1848888 49.2757723 34.271375 49.8342978 34.3142472 50.4355471 34.271375 50.9939242 34.1848888 52.0250824 33.8840416 52.9701995 33.3692785 53.7865516 32.6816913 54.473842 31.866081 54.9891986 30.9209639 55.1611324 30.4048656 55.2901941 29.8893607 55.3759385 29.3311319 55.4189591 28.7727548 55.3759385 28.1715055 55.2901941 27.6125349 54.9891986 26.5816735 54.473842 25.6367047 53.7865516 24.8203526 52.9701995 24.1327655 52.0250824 23.6172606 51.5092808 23.4453267 50.9939242 23.3167101 50.4355471 23.2309657 49.8342978 23.1876484 49.2757723 23.2309657 48.7170985 23.3167101 47.686237 23.6172606 46.7408232 24.1327655 45.9244711 24.8203526 45.2374774 25.6367047 44.9795024 26.1091891 44.7216758 26.5816735 44.550187 27.0971784 44.4211253 27.6125349 44.3350842 28.1715055"></polygon>
                    <mask id="mask-4" fill="white">
                        <use xlink:href="#path-3"></use>
                    </mask>
                    <g id="Clip-27"></g>
                </g>
            </g>
        </g>
    </g>
</svg>