<?xml version="1.0" standalone="no"?>
<!DOCTYPE svg PUBLIC "-//W3C//DTD SVG 20010904//EN"
 "http://www.w3.org/TR/2001/REC-SVG-20010904/DTD/svg10.dtd">
<svg version="1.0" xmlns="http://www.w3.org/2000/svg"
 width="500.000000pt" height="500.000000pt" viewBox="0 0 500.000000 500.000000"
 preserveAspectRatio="xMidYMid meet">

<g transform="translate(0.000000,500.000000) scale(0.100000,-0.100000)"
fill="#000000" stroke="none">
<path d="M1905 3989 c-33 -5 -89 -23 -125 -41 -51 -26 -73 -45 -105 -91 -38
-55 -105 -110 -105 -86 0 7 5 29 12 51 20 66 2 69 -99 17 -101 -51 -142 -96
-169 -186 -15 -52 -18 -55 -25 -33 -4 14 -7 39 -8 56 -1 18 -9 42 -19 55 l-19
22 -45 -41 c-59 -55 -97 -111 -119 -174 l-17 -51 -16 32 c-9 17 -23 31 -31 31
-18 0 -79 -94 -99 -154 -18 -54 -21 -148 -5 -210 6 -23 9 -62 7 -86 l-3 -44
-44 57 c-61 80 -74 76 -107 -25 -52 -163 -31 -287 65 -391 36 -39 41 -50 41
-91 l0 -48 -37 29 c-72 56 -134 93 -155 93 -20 0 -21 -3 -15 -102 7 -121 25
-188 70 -254 42 -62 93 -102 157 -123 49 -16 54 -20 75 -74 13 -31 22 -57 21
-57 -1 0 -54 18 -116 40 -75 27 -117 37 -123 31 -25 -25 76 -232 148 -304 63
-64 104 -81 270 -113 11 -2 33 -19 48 -39 l28 -35 -94 0 c-189 0 -198 -17 -80
-139 107 -109 221 -157 338 -144 l40 5 -55 -29 c-30 -15 -55 -35 -55 -43 0
-19 52 -53 123 -82 46 -18 77 -22 162 -23 99 0 109 2 177 34 l72 33 93 -32
c81 -29 109 -33 225 -37 76 -3 130 -9 127 -14 -3 -5 -40 -27 -82 -49 -42 -22
-86 -47 -97 -57 -85 -74 -68 -162 26 -134 26 8 55 31 97 79 50 56 75 74 151
111 l90 43 86 -41 c65 -32 103 -59 160 -116 54 -53 85 -76 109 -80 60 -12 97
25 77 78 -14 35 -65 75 -163 124 l-83 42 52 1 c90 0 205 20 295 51 l87 30 92
-36 c88 -36 96 -37 188 -33 88 3 103 7 176 43 100 50 104 68 25 108 l-55 28
56 -6 c69 -8 166 14 224 52 56 36 195 182 195 204 0 25 -32 32 -156 33 l-103
1 40 41 c37 37 46 42 103 47 77 7 142 35 195 82 81 73 189 286 162 319 -10 12
-23 10 -86 -10 -42 -13 -91 -31 -111 -39 -34 -14 -36 -14 -29 3 4 9 12 31 17
47 16 43 25 52 62 59 131 25 224 180 229 381 2 83 1 90 -18 93 -11 1 -56 -23
-100 -53 l-80 -55 -3 42 c-3 38 1 46 38 82 60 57 87 103 101 174 15 72 4 162
-32 256 -27 73 -45 73 -95 0 l-39 -57 -4 34 c-1 19 2 71 9 115 10 70 9 91 -5
145 -16 64 -88 189 -108 189 -6 0 -21 -12 -34 -27 -20 -26 -22 -26 -23 -7 0
40 -51 122 -110 179 -77 73 -93 69 -105 -30 l-7 -49 -36 74 c-42 85 -82 121
-186 165 -82 35 -98 27 -73 -36 9 -24 15 -44 13 -47 -10 -10 -66 31 -86 62
-32 53 -106 113 -165 135 -29 11 -87 23 -129 27 -92 8 -101 -3 -60 -68 84
-131 156 -188 269 -213 l29 -6 -42 -19 c-23 -11 -42 -23 -42 -29 0 -10 84 -93
122 -120 13 -9 52 -26 88 -38 62 -21 64 -22 37 -32 -15 -6 -27 -15 -27 -20 0
-12 85 -114 131 -158 19 -17 54 -43 79 -57 34 -20 40 -26 23 -26 -12 0 -24 -4
-27 -9 -10 -15 73 -205 112 -256 21 -28 61 -68 90 -89 65 -48 60 -60 -6 -17
-55 35 -89 34 -77 -3 4 -11 9 -84 10 -162 3 -153 10 -187 61 -279 38 -70 56
-115 46 -115 -4 0 -17 20 -30 44 -13 24 -36 59 -51 77 -25 29 -31 32 -45 20
-9 -7 -16 -25 -16 -38 0 -14 -19 -71 -41 -126 -29 -72 -43 -122 -47 -170 l-5
-69 -31 6 c-73 15 -424 56 -581 67 -93 7 -324 12 -512 12 -408 -1 -652 -17
-992 -64 -79 -11 -145 -18 -147 -16 -2 2 -9 30 -15 63 -6 32 -27 99 -46 148
-19 50 -38 108 -41 129 -4 22 -15 45 -25 51 -21 13 -48 -17 -99 -109 -31 -56
-33 -58 -36 -32 -3 21 7 43 36 80 73 97 90 159 96 335 2 64 7 129 11 143 11
44 -20 45 -83 4 -29 -20 -56 -34 -59 -32 -2 3 19 21 49 40 29 18 72 54 95 79
43 47 148 252 138 269 -4 5 -21 9 -38 9 -32 0 -32 0 18 29 60 35 105 76 168
155 50 62 54 79 19 84 -27 4 -29 22 -4 22 58 0 237 131 230 168 -2 8 -17 20
-35 26 -45 16 -50 24 -17 31 45 9 126 50 163 80 43 37 134 173 127 191 -6 16
-37 16 -131 3z m56 -77 c-71 -106 -134 -148 -232 -159 -80 -8 -74 1 46 72 51
30 97 60 100 66 9 14 -109 -46 -162 -83 -24 -16 -43 -26 -43 -23 0 15 63 96
89 115 39 27 102 49 171 59 30 5 59 9 63 10 4 0 -10 -25 -32 -57z m1154 43
c53 -7 127 -41 162 -74 45 -43 97 -123 61 -93 -30 23 -199 114 -205 109 -4 -5
74 -56 137 -92 65 -36 75 -43 68 -50 -14 -15 -119 8 -162 36 -40 25 -120 113
-147 162 -9 15 -7 17 13 13 13 -3 45 -8 73 -11z m-1586 -191 c-31 -67 -54 -99
-91 -126 -17 -12 -29 -18 -26 -12 19 35 39 86 35 90 -2 2 -18 -22 -35 -54 -17
-32 -40 -66 -52 -77 -20 -18 -20 -18 -20 10 0 84 56 164 150 215 65 35 72 26
39 -46z m2071 -1 c43 -37 80 -108 80 -153 0 -26 -2 -29 -17 -19 -10 7 -38 42
-62 80 -51 79 -69 86 -22 8 18 -28 30 -53 28 -55 -2 -3 -24 15 -48 38 -40 39
-75 97 -93 155 l-7 22 52 -22 c28 -12 68 -36 89 -54z m-2015 -39 c-25 -20 -75
-46 -75 -40 0 5 82 56 90 56 3 -1 -4 -8 -15 -16z m1875 -5 l25 -20 -32 16
c-18 8 -33 18 -33 20 0 10 16 4 40 -16z m-2214 -51 c19 -91 0 -195 -47 -254
l-32 -39 7 55 c3 30 9 75 11 100 l5 45 -13 -41 c-8 -22 -17 -68 -20 -103 -4
-34 -12 -72 -18 -84 l-12 -21 -10 24 c-5 14 -10 59 -11 100 -1 61 3 83 23 120
23 44 89 127 103 129 3 1 10 -14 14 -31z m2583 -10 c24 -24 55 -67 69 -97 22
-48 24 -62 19 -134 -9 -116 -20 -119 -42 -10 -17 81 -45 176 -51 170 -3 -2 5
-44 16 -92 11 -48 19 -90 16 -92 -9 -9 -74 80 -84 116 -18 58 -13 181 7 181 4
0 27 -19 50 -42z m-2078 -5 c12 -12 -80 -85 -137 -109 -42 -18 -152 -23 -193
-9 -25 8 -25 8 10 25 19 9 71 23 117 30 45 8 82 16 82 20 0 13 -165 -11 -204
-30 -47 -23 -159 -129 -220 -209 -120 -159 -191 -317 -237 -536 -16 -75 -21
-134 -21 -240 1 -283 88 -552 264 -812 51 -77 54 -102 3 -31 -181 253 -285
562 -285 848 0 136 40 343 90 469 54 138 154 297 248 394 85 88 216 183 278
200 30 9 195 0 205 -10z m1764 -4 c243 -108 470 -403 539 -702 33 -142 38
-185 38 -311 0 -211 -61 -463 -152 -631 -94 -174 -123 -222 -152 -252 -48 -49
-45 -32 6 37 61 82 170 290 202 382 76 223 101 457 70 649 -34 204 -110 387
-225 538 -70 92 -183 198 -237 222 -39 18 -226 40 -213 25 3 -3 48 -12 100
-20 100 -15 129 -23 129 -36 0 -12 -40 -20 -111 -20 -75 0 -135 25 -208 87
l-44 38 34 7 c51 10 190 2 224 -13z m550 -244 c33 -73 34 -166 4 -230 -42 -89
-48 -79 -42 72 4 99 2 135 -5 128 -6 -6 -13 -55 -14 -110 l-3 -100 -24 50
c-33 67 -34 167 -1 242 l22 53 19 -25 c11 -13 31 -49 44 -80z m-3010 6 c21
-65 17 -190 -8 -236 -13 -25 -16 -27 -17 -10 -1 11 -8 61 -15 110 l-14 90 5
-134 5 -135 -20 18 c-28 25 -61 117 -61 169 0 65 32 158 68 200 14 16 16 16
27 0 7 -10 20 -42 30 -72z m495 23 c0 -15 -86 -106 -130 -139 -66 -49 -124
-67 -201 -63 l-64 3 58 28 c32 15 60 27 63 27 13 0 135 63 141 73 4 6 1 8 -8
5 -153 -61 -206 -83 -216 -91 -20 -15 -15 1 9 36 62 89 140 126 266 127 45 0
82 -3 82 -6z m2193 -28 c40 -23 132 -124 122 -134 -1 -2 -27 9 -56 24 -66 33
-180 76 -186 70 -2 -2 55 -34 129 -70 l133 -66 -75 3 c-102 5 -155 31 -246
119 -41 39 -74 76 -74 81 0 6 41 8 104 5 90 -4 110 -8 149 -32z m-2420 -328
c-58 -115 -135 -197 -207 -221 -97 -33 -94 -22 28 94 64 62 114 114 112 117
-6 5 -107 -78 -188 -157 -32 -30 -58 -51 -58 -46 0 18 28 102 43 131 22 42 75
92 120 116 32 16 161 55 189 57 4 1 -13 -41 -39 -91z m2467 72 c99 -28 197
-121 219 -208 26 -104 29 -103 -66 -6 -91 94 -152 148 -158 142 -4 -3 17 -26
174 -191 l56 -59 -35 7 c-60 13 -126 52 -167 100 -40 47 -51 66 -102 174 l-30
63 37 -6 c20 -3 53 -10 72 -16z m441 -77 c43 -129 25 -256 -47 -326 -26 -27
-64 -52 -64 -44 0 2 15 50 34 108 18 57 36 129 40 159 5 44 -2 30 -32 -73 -22
-70 -41 -130 -44 -133 -8 -7 -28 88 -28 130 0 48 25 112 72 183 22 35 42 63
43 63 2 0 13 -30 26 -67z m-3368 -10 c62 -93 81 -162 67 -244 -5 -35 -10 -68
-10 -73 0 -22 -14 10 -50 116 -22 62 -39 103 -40 91 0 -30 23 -114 54 -195 16
-43 22 -68 14 -68 -17 0 -82 72 -104 116 -26 53 -26 187 0 267 10 31 20 57 22
57 1 0 23 -30 47 -67z m355 -375 c-8 -167 -18 -209 -70 -285 -29 -42 -91 -93
-115 -93 -16 0 2 44 62 144 51 87 56 114 6 39 -17 -26 -31 -45 -31 -41 0 9 51
148 74 201 10 22 13 36 8 33 -17 -10 -89 -168 -118 -258 -15 -49 -31 -88 -35
-88 -4 0 -10 29 -14 64 -16 151 38 272 163 366 37 27 69 50 72 50 3 0 2 -60
-2 -132z m2635 103 c63 -43 126 -115 154 -178 26 -57 35 -159 19 -231 -10 -41
-26 -32 -27 16 -1 31 -2 33 -8 12 -5 -19 -11 -9 -28 57 -20 74 -82 227 -89
220 -2 -1 13 -52 32 -111 19 -60 32 -111 30 -113 -2 -2 -17 18 -35 44 -46 71
-38 39 13 -50 44 -77 70 -137 62 -144 -9 -9 -45 18 -80 59 -60 70 -78 132 -85
301 -3 81 -5 147 -3 147 2 0 22 -13 45 -29z m-3101 -188 c120 -83 169 -149
187 -247 6 -33 11 -64 11 -70 -1 -14 -100 94 -148 161 -20 29 -40 52 -44 53
-19 1 66 -123 136 -197 43 -45 72 -83 64 -83 -34 0 -109 34 -147 67 -54 45
-90 118 -107 212 -14 78 -18 141 -9 141 3 0 29 -17 57 -37z m3564 -8 c-3 -25
-9 -66 -12 -92 -8 -63 -35 -132 -69 -177 -31 -40 -122 -89 -157 -84 -21 3 -19
7 33 64 58 62 144 182 137 190 -3 2 -44 -43 -92 -101 -48 -58 -89 -105 -90
-105 -2 0 4 36 14 80 19 84 36 120 79 158 42 39 142 112 153 112 5 0 7 -19 4
-45z m-493 -282 c46 -85 61 -143 61 -228 0 -65 -5 -90 -25 -135 -15 -30 -36
-64 -49 -75 l-23 -20 7 25 c3 14 9 89 13 168 4 104 3 142 -5 142 -7 0 -12 -17
-12 -42 0 -24 -3 -67 -7 -97 l-6 -53 -41 6 c-22 4 -44 12 -48 19 -15 21 3 109
43 215 22 56 39 112 39 123 0 30 20 12 53 -48z m-2559 -18 c13 -39 34 -96 45
-128 12 -32 24 -78 28 -102 5 -42 4 -45 -21 -55 -73 -27 -85 -12 -87 105 -1
62 -2 66 -11 40 -6 -16 -11 -89 -12 -162 -1 -143 0 -143 -52 -44 -36 70 -43
149 -19 223 16 49 95 201 101 195 2 -2 14 -34 28 -72z m2945 -236 c-44 -113
-123 -215 -192 -251 -43 -21 -167 -38 -167 -22 0 5 36 31 80 57 45 27 106 73
138 103 l57 55 -123 -82 c-68 -45 -125 -79 -127 -77 -6 6 61 117 87 145 34 36
207 119 255 122 9 1 7 -14 -8 -50z m-3370 26 c73 -25 165 -73 193 -100 34 -32
112 -145 104 -152 -3 -3 -60 32 -128 77 -98 65 -116 74 -88 45 39 -41 118 -97
198 -140 28 -15 52 -32 52 -38 0 -9 -79 -2 -140 14 -74 18 -148 95 -204 209
-55 112 -56 110 13 85z m2061 -25 c244 -13 446 -33 665 -67 94 -14 171 -27
173 -28 4 -4 -61 -414 -68 -425 -4 -6 -35 -4 -85 5 -109 20 -464 52 -725 66
-388 21 -1000 -6 -1378 -61 -151 -22 -147 -23 -157 45 -8 51 -34 209 -49 298
-7 37 -10 67 -7 67 3 0 44 7 91 16 228 40 625 80 870 88 237 6 495 5 670 -4z
m-1639 -461 c15 -8 34 -67 25 -77 -5 -4 -89 12 -120 24 -12 5 -17 4 -13 -3 4
-5 32 -18 64 -28 32 -10 64 -22 71 -28 7 -5 33 -7 60 -3 40 5 54 2 96 -23 l49
-29 -44 -13 c-129 -36 -233 -4 -349 108 -38 37 -70 71 -70 75 0 18 196 15 231
-3z m2697 12 c22 -6 19 -11 -51 -79 -98 -95 -165 -127 -262 -125 -38 0 -88 8
-110 16 l-40 14 54 28 c45 22 63 26 99 21 25 -3 50 -2 56 3 6 4 34 16 62 25
28 9 60 23 70 31 18 14 17 15 -6 7 -14 -5 -44 -12 -67 -16 -42 -6 -43 -5 -43
21 0 35 9 49 35 56 29 7 176 6 203 -2z m-1018 -41 c107 -5 211 -12 231 -15
l37 -6 -25 -27 c-27 -28 -73 -117 -73 -141 0 -9 -6 -11 -17 -6 -10 4 -50 10
-88 12 -85 6 -181 -16 -365 -83 -69 -25 -129 -46 -135 -46 -5 0 -87 27 -181
60 -231 81 -330 94 -426 57 -13 -5 -20 0 -28 21 -18 49 -44 94 -67 116 -13 12
-23 25 -23 28 0 6 146 21 330 33 111 8 653 6 830 -3z m319 -121 c-53 -77 -86
-109 -115 -109 -9 0 7 62 24 95 8 17 28 47 44 68 25 32 35 37 69 37 l40 0 -62
-91z m96 31 c-24 -47 -61 -83 -115 -110 -24 -13 -24 -13 -7 11 9 13 29 44 43
69 15 25 33 55 40 66 9 16 20 20 38 17 l25 -5 -24 -48z m-1689 18 c9 -18 31
-51 48 -73 49 -61 53 -69 25 -55 -52 27 -80 53 -105 95 -14 25 -23 49 -19 55
12 20 35 10 51 -22z m101 0 c84 -89 101 -213 18 -130 -26 26 -103 123 -119
150 -5 9 3 12 31 12 31 0 46 -7 70 -32z m1718 12 c-3 -5 -10 -10 -16 -10 -5 0
-9 5 -9 10 0 6 7 10 16 10 8 0 12 -4 9 -10z m75 -4 c0 -8 -143 -84 -197 -105
-29 -11 -53 -19 -53 -16 0 2 37 22 83 44 45 21 96 48 112 59 28 19 55 28 55
18z m-2062 -30 c20 -13 61 -34 91 -47 30 -13 49 -25 43 -27 -11 -3 -136 56
-177 84 -34 24 4 15 43 -10z m254 -130 c70 -23 127 -37 233 -55 47 -8 47 -9
13 -10 -20 0 -60 4 -87 10 -47 10 -55 8 -113 -20 -93 -45 -173 -58 -250 -42
-75 15 -173 60 -160 73 5 5 47 23 93 39 105 36 173 37 271 5z m1769 -5 c30
-12 64 -27 75 -35 18 -14 16 -16 -36 -40 -125 -57 -243 -55 -364 6 -56 28 -61
29 -121 19 -34 -6 -77 -10 -96 -10 -21 1 -3 7 46 15 44 8 125 27 180 44 84 25
113 29 180 26 48 -2 102 -12 136 -25z m-1212 -53 l195 -66 187 64 c187 63 283
83 336 69 l28 -7 -25 -13 c-53 -28 -160 -55 -279 -71 -68 -9 -146 -24 -173
-33 l-50 -17 146 -68 c151 -71 226 -123 226 -157 0 -15 -7 -19 -30 -19 -25 0
-48 16 -119 83 -72 67 -102 88 -168 116 -57 23 -88 31 -104 26 -55 -17 -199
-98 -214 -121 -35 -53 -98 -105 -123 -102 -35 4 -37 20 -6 57 17 21 80 58 185
110 169 84 166 79 79 102 -19 5 -96 18 -171 29 -143 21 -303 66 -292 83 3 6
41 8 92 5 71 -4 119 -16 280 -70z m-10 -43 c47 -8 87 -18 90 -21 13 -13 -305
4 -349 19 l-45 15 110 1 c61 0 148 -6 194 -14z m689 9 c-14 -14 -173 -33 -268
-33 -111 1 -103 8 30 28 64 10 246 14 238 5z"/>
<path d="M1627 1320 c-38 -5 -71 -11 -75 -14 -3 -3 60 -6 139 -6 84 0 138 4
129 9 -25 14 -121 19 -193 11z"/>
<path d="M3196 1319 c-22 -5 -41 -10 -42 -12 -1 -1 66 -3 149 -3 100 -1 142 2
122 7 -48 14 -187 19 -229 8z"/>
<path d="M2785 1051 c46 -47 75 -64 75 -42 0 12 -55 58 -94 77 -28 15 -26 11
19 -35z"/>
<path d="M2194 1058 c-44 -34 -57 -58 -31 -58 13 0 77 60 77 73 0 13 -17 7
-46 -15z"/>
<path d="M2777 3510 c-155 -39 -244 -158 -276 -371 -12 -78 -20 -107 -25 -92
-13 39 -85 101 -142 123 -66 24 -192 27 -272 6 l-53 -14 6 36 c4 20 8 43 11
50 3 11 46 13 212 11 114 -1 213 0 219 4 12 7 37 170 32 207 l-4 25 -282 3
-283 2 -5 -22 c-8 -36 -65 -447 -65 -470 0 -22 26 -47 48 -48 7 0 31 15 54 33
36 28 47 32 103 32 57 0 67 -3 94 -29 36 -35 49 -99 32 -156 -12 -42 -52 -80
-82 -80 -16 0 -19 8 -19 53 0 73 -27 99 -108 105 -71 5 -126 -17 -147 -58 -20
-38 -19 -66 4 -116 85 -187 504 -175 624 18 16 25 34 68 42 94 l13 49 17 -40
c37 -87 48 -104 91 -147 160 -160 430 -139 555 43 61 88 84 172 83 314 -1 282
-123 434 -354 442 -47 1 -102 -2 -123 -7z m202 -34 c137 -37 220 -152 238
-333 22 -213 -43 -382 -177 -457 -52 -29 -61 -31 -160 -31 -90 0 -112 3 -153
23 -59 30 -116 87 -146 148 -27 53 -51 165 -51 236 0 72 26 191 54 245 73 144
231 212 395 169z m-526 -31 c-1 -11 -5 -50 -8 -87 l-7 -68 -223 0 -224 0 -6
-57 c-3 -32 -8 -73 -11 -90 -3 -18 -3 -33 0 -33 2 0 26 10 53 22 40 18 67 22
158 22 95 1 116 -2 151 -21 130 -69 169 -226 89 -353 -31 -48 -51 -65 -120
-97 -56 -26 -69 -28 -190 -28 -115 0 -135 3 -171 22 -88 47 -123 135 -73 182
29 27 99 37 136 19 24 -11 28 -20 31 -63 4 -66 25 -89 75 -82 72 10 110 67
110 164 0 53 -5 68 -27 98 -64 83 -168 89 -283 15 -12 -8 -24 -12 -27 -9 -3 3
1 45 9 94 7 50 21 149 30 220 9 72 18 136 21 143 3 10 59 12 256 10 246 -3
253 -4 251 -23z"/>
<path d="M2830 3402 c-43 -43 -54 -116 -54 -337 0 -205 10 -272 47 -318 52
-62 114 -36 143 61 14 46 17 97 18 262 0 231 -13 302 -60 339 -36 28 -60 26
-94 -7z m95 -57 c18 -37 20 -60 19 -270 0 -174 -4 -239 -15 -269 -27 -74 -70
-74 -97 0 -18 51 -28 362 -14 462 18 126 66 160 107 77z"/>
<path d="M1435 2648 c-3 -8 -5 -46 -3 -84 3 -68 3 -69 32 -72 22 -3 35 3 48
20 18 23 18 22 15 -62 -2 -47 -9 -95 -16 -108 -9 -16 -9 -27 -1 -42 10 -19 19
-21 93 -18 l82 3 3 29 c2 16 -1 33 -7 39 -6 6 -11 48 -11 96 0 79 1 83 18 69
9 -8 25 -18 34 -21 15 -5 17 -16 12 -69 -2 -35 -7 -74 -10 -86 -2 -13 -2 -32
1 -43 6 -18 17 -19 157 -19 141 0 150 1 155 20 7 25 10 25 48 1 64 -38 168
-34 226 8 35 26 37 26 41 -1 l3 -23 247 -3 c246 -2 247 -2 259 20 l12 22 8
-22 c8 -21 13 -22 143 -22 128 0 135 1 141 21 7 21 7 21 21 1 13 -19 25 -21
140 -21 116 0 125 1 132 20 l8 20 18 -20 c22 -24 109 -30 123 -8 4 6 6 54 4
105 -2 60 1 97 9 107 6 7 10 29 8 47 l-3 33 -61 3 c-45 2 -64 -1 -73 -12 -11
-14 -15 -14 -28 -1 -11 12 -42 15 -133 15 -111 0 -120 -1 -134 -22 l-16 -22
-16 22 c-13 18 -25 22 -73 22 -31 0 -62 -5 -69 -12 -15 -15 -16 -60 -1 -75 5
-5 9 -34 7 -63 l-3 -52 -34 88 c-19 49 -38 95 -44 102 -6 7 -35 12 -77 12 -74
0 -80 -4 -80 -65 0 -30 -35 -125 -46 -125 -7 0 1 91 10 112 4 9 6 29 4 45 -3
28 -4 28 -81 31 l-77 3 -21 -36 -21 -36 -17 33 -16 33 -85 0 -85 0 -5 -29 c-5
-27 -6 -28 -19 -12 -23 27 -79 46 -138 46 -58 0 -102 -17 -144 -57 l-26 -24
-7 25 c-10 39 -48 59 -101 54 -41 -5 -45 -4 -45 16 0 48 9 46 -260 43 -52 0
-112 3 -132 7 -29 7 -39 5 -43 -6z m295 -75 c0 -45 -14 -57 -25 -23 -4 14 -15
20 -36 20 -26 0 -29 -3 -29 -32 -1 -18 -3 -67 -6 -109 -5 -70 -4 -78 15 -91
29 -21 16 -28 -50 -28 -56 0 -86 14 -55 26 13 5 16 26 16 120 l0 114 -28 0
c-21 0 -32 -7 -40 -25 -18 -39 -32 -29 -32 23 l0 47 135 0 135 0 0 -42z m106
12 c3 -19 4 -42 0 -50 -7 -20 -3 -19 36 5 42 25 73 25 98 0 17 -17 20 -33 20
-109 0 -50 5 -93 10 -96 24 -15 6 -25 -46 -25 -50 0 -55 2 -48 18 13 29 16
139 4 161 -13 26 -25 26 -50 1 -26 -26 -30 -144 -5 -154 34 -13 12 -26 -45
-26 -56 0 -75 10 -50 25 7 4 11 56 10 138 -1 73 -1 135 -1 140 1 4 14 7 31 7
25 0 30 -4 36 -35z m416 -31 c15 -3 41 -22 58 -40 23 -27 30 -44 30 -78 0 -77
-59 -126 -152 -126 -172 0 -201 194 -37 245 24 7 51 12 59 10 8 -2 27 -7 42
-11z m277 -66 c14 -38 28 -68 31 -68 3 0 13 26 24 58 25 76 31 82 87 82 44 0
78 -19 51 -28 -8 -2 -12 -34 -12 -97 0 -63 4 -95 12 -97 27 -9 -7 -28 -52 -28
-51 0 -71 13 -45 28 13 7 15 23 13 83 l-3 74 -36 -90 c-48 -121 -57 -121 -113
-3 l-45 93 0 -77 c-1 -63 2 -78 14 -78 8 0 15 -7 15 -15 0 -11 -12 -15 -45
-15 -33 0 -45 4 -45 15 0 8 5 15 10 15 6 0 10 38 10 95 0 57 -4 95 -10 95 -5
0 -10 7 -10 15 0 13 11 15 61 13 l62 -3 26 -67z m409 28 c7 -21 19 -54 27 -72
8 -19 22 -50 30 -69 9 -19 20 -37 25 -40 22 -14 -4 -25 -56 -25 -41 0 -54 4
-54 15 0 8 5 15 10 15 7 0 7 6 0 20 -8 15 -21 20 -54 20 -35 0 -45 -4 -49 -20
-3 -11 -1 -20 4 -20 5 0 9 -7 9 -15 0 -11 -11 -15 -39 -15 -42 0 -61 13 -38
27 22 13 78 171 71 199 -6 25 -5 25 47 22 53 -3 54 -4 67 -42z m206 33 c2 -2
24 -35 50 -74 l46 -70 0 63 c0 35 -4 62 -10 62 -5 0 -10 7 -10 15 0 11 12 15
45 15 32 0 45 -4 45 -14 0 -8 -7 -16 -15 -20 -12 -4 -15 -26 -15 -111 l0 -105
-32 0 c-30 1 -38 8 -83 75 -27 41 -53 75 -57 75 -5 0 -8 -25 -8 -55 0 -44 4
-56 20 -65 31 -16 14 -30 -36 -30 -32 0 -44 4 -44 15 0 8 5 15 10 15 15 0 13
187 -2 192 -6 2 -9 9 -5 15 6 10 93 11 101 2z m338 -59 l53 -71 3 48 c2 34 -1
51 -12 59 -29 21 -18 34 29 34 33 0 45 -4 45 -15 0 -8 -4 -15 -10 -15 -6 0
-10 -43 -10 -110 l0 -110 -29 0 c-25 0 -37 10 -76 64 -70 98 -75 100 -75 27 0
-48 3 -61 15 -61 8 0 15 -7 15 -15 0 -11 -12 -15 -44 -15 -46 0 -70 15 -42 26
24 9 23 179 0 192 -28 15 -6 32 41 32 44 0 46 -2 97 -70z m-152 -61 c0 -44 -4
-68 -10 -64 -18 11 -12 135 7 135 2 0 3 -32 3 -71z m-1453 -36 c-3 -10 -5 -2
-5 17 0 19 2 27 5 18 2 -10 2 -26 0 -35z"/>
<path d="M2149 2513 c-9 -10 -14 -41 -14 -80 0 -69 15 -93 60 -93 12 0 30 6
41 14 27 20 27 125 0 155 -23 25 -68 27 -87 4z m61 -84 c0 -52 -3 -70 -12 -67
-8 3 -14 29 -16 71 -2 55 0 67 13 67 12 0 15 -14 15 -71z"/>
<path d="M2853 2449 c-10 -25 -9 -31 3 -36 8 -3 20 -3 28 0 12 5 13 11 3 36
-6 17 -14 31 -17 31 -3 0 -11 -14 -17 -31z"/>
</g>
</svg>
